# xmcd
#
# Track frame offsets:
#	150
#	13592
#	31958
#	48353
#	60300
#	76737
#	95314
#	108142
#	125775
#	144607
#	159461
#	175252
#	193997
#	207392
#	227278
#	245104
#	262351
#	275505
#	290142
#
# Disc length: 4073 seconds
#
# Revision: 2
# Processed by: cddbd v1.5.2PL0 Copyright (c) Steve Scherf et al.
# Submitted via: EZCDAudioConverter 7.1.2.1
#
DISCID=150fe713
DTITLE=George Strait - Strait Out Of The Box: Part 2 2001-2008
DYEAR=2016
DGENRE=Country
TTITLE0=She'll Leave You With A Smile
TTITLE1=Run
TTITLE2=Living And Living Well
TTITLE3=My Life's Been Grand
TTITLE4=Cowboys Like Us
TTITLE5=Desperately
TTITLE6=Four Down And Twelve Across
TTITLE7=I Hate Everything
TTITLE8=The Seashores Of Old Mexico
TTITLE9=She Let Herself Go
TTITLE10=Give It Away
TTITLE11=Wrapped
TTITLE12=It Just Comes Natural
TTITLE13=Texas Cookin'
TTITLE14=How 'bout Them Cowgirls
TTITLE15=Come On Joe
TTITLE16=Troubadour
TTITLE17=River Of Love
TTITLE18=I Saw God Today
EXTD=
EXTT0=
EXTT1=
EXTT2=
EXTT3=
EXTT4=
EXTT5=
EXTT6=
EXTT7=
EXTT8=
EXTT9=
EXTT10=
EXTT11=
EXTT12=
EXTT13=
EXTT14=
EXTT15=
EXTT16=
EXTT17=
EXTT18=
PLAYORDER=
